<?xml version="1.0" encoding="utf-8"?>
<!-- Generator: Adobe Illustrator 19.2.0, SVG Export Plug-In . SVG Version: 6.00 Build 0)  -->
<svg version="1.1" id="Слой_1" xmlns="http://www.w3.org/2000/svg" xmlns:xlink="http://www.w3.org/1999/xlink" x="0px" y="0px"
	 viewBox="0 0 56.9 286.4" style="enable-background:new 0 0 56.9 286.4;" xml:space="preserve">
<style type="text/css">
	.st0{fill-rule:evenodd;clip-rule:evenodd;fill:#44B1B5;}
	.st1{fill-rule:evenodd;clip-rule:evenodd;fill:#F0CCAF;}
	.st2{fill-rule:evenodd;clip-rule:evenodd;fill:#AB6125;}
	.st3{fill-rule:evenodd;clip-rule:evenodd;fill:#F9FBFB;}
	.st4{fill-rule:evenodd;clip-rule:evenodd;fill:#F8FBFA;}
	.st5{fill-rule:evenodd;clip-rule:evenodd;fill:#F7BB3B;}
	.st6{fill-rule:evenodd;clip-rule:evenodd;fill:#E89D06;}
	.st7{fill-rule:evenodd;clip-rule:evenodd;fill:#E79D00;}
	.st8{fill-rule:evenodd;clip-rule:evenodd;fill:#FDFBF9;}
	.st9{fill-rule:evenodd;clip-rule:evenodd;fill:#950956;}
	.st10{fill-rule:evenodd;clip-rule:evenodd;fill:#B2B2B2;}
	.st11{fill-rule:evenodd;clip-rule:evenodd;fill:#BEBEBE;}
	.st12{fill-rule:evenodd;clip-rule:evenodd;fill:#3258B5;}
	.st13{fill-rule:evenodd;clip-rule:evenodd;fill:#456FD7;}
	.st14{fill-rule:evenodd;clip-rule:evenodd;fill:#C4C4C5;}
	.st15{fill-rule:evenodd;clip-rule:evenodd;fill:#FDC633;}
	.st16{fill-rule:evenodd;clip-rule:evenodd;fill:#FC75B0;}
	.st17{fill-rule:evenodd;clip-rule:evenodd;fill:#627FD6;}
	.st18{fill-rule:evenodd;clip-rule:evenodd;fill:#567EE4;}
	.st19{fill-rule:evenodd;clip-rule:evenodd;fill:#00A2C5;}
	.st20{fill-rule:evenodd;clip-rule:evenodd;fill:#FDAC11;}
	.st21{fill-rule:evenodd;clip-rule:evenodd;fill:#006E86;}
	.st22{fill-rule:evenodd;clip-rule:evenodd;fill:#2DB366;}
	.st23{fill-rule:evenodd;clip-rule:evenodd;fill:#3FD880;}
	.st24{fill-rule:evenodd;clip-rule:evenodd;fill:#FDFEFE;}
	.st25{fill-rule:evenodd;clip-rule:evenodd;fill:#279D58;}
	.st26{fill-rule:evenodd;clip-rule:evenodd;fill:#D2D2D2;}
	.st27{fill-rule:evenodd;clip-rule:evenodd;fill:#D6D6D6;}
	.st28{fill-rule:evenodd;clip-rule:evenodd;fill:#DBDBDB;}
	.st29{fill-rule:evenodd;clip-rule:evenodd;fill:#F9F9F9;}
	.st30{fill-rule:evenodd;clip-rule:evenodd;fill:#F5F5F5;}
</style>
<g>
	<path class="st0" d="M41.6,203.1c10.4,3.4,15,9.6,15.3,20.2c0.1,4.3-1.6,6.7-6,6.7c-14.3,0-28.6,0-42.9,0c-4.1,0-5.9-2.3-5.8-6.4
		C2.2,213,7,206.5,17.6,203c1.9-0.5,2.6,0.9,3.3,2.2c3.4,5.3,3.4,5.3,9.7,3.3c3.2,2.5,5.7,1.8,7.4-1.8c0.6-1.2,1.4-2.2,2.4-3.1
		C40.7,203.3,41.2,203.1,41.6,203.1z"/>
	<path class="st1" d="M19.7,206c-0.7-1-1.4-2-2.2-3c-1.5-3.5-3.5-6.8-3-10.8c1.5-3.6,4.7-5.4,7.7-7.4c1.4-1,3.4-1,4.6,0.3
		c4.2,4.2,9.4,5.9,15,7.1c1.2,0.2,2.1,0.9,2.6,2.1c0.2,3.3-2.1,5.9-2.8,8.9c-0.2,0.3-0.5,0.5-0.7,0.8c-2.9,2.8-4.8,7.4-10.2,5
		C26.3,210.7,22.9,209,19.7,206z"/>
	<path class="st2" d="M44.4,194.2c-7.2-0.1-13.9-1.5-18.6-7.6c-1.3-1.7-2.1-0.9-3,0.2c-2.2,2.6-5.1,4.2-8.2,5.4
		c-0.5-5.4,2.3-10,7.4-12.8c6.3-3.4,12.2-2.4,17.8,1.7C43.7,184.1,45.7,189.9,44.4,194.2z"/>
	<path class="st3" d="M30.5,208.3c4-0.4,7.1-2.7,10.5-4.4c0,2.3-1.7,3.9-2.8,5.7c-3.9,6.5-3.1,7.4-7.7-0.3c-0.3-0.2-0.5-0.5-0.3-0.7
		C30.3,208.4,30.4,208.3,30.5,208.3z"/>
	<path class="st4" d="M30.5,208.3c0,0.3,0,0.7-0.1,1c-2.5,1-2.7,4.1-5.5,5.8c-1.8-3-3.5-6.1-5.3-9.1
		C23.5,206.2,26.7,208.7,30.5,208.3z"/>
</g>
<g>
	<path class="st5" d="M48.1,151c0.3,0.3,0.6,0.5,0.9,0.8c-0.9,2.5-3.3,2.2-5.1,2.2c-4.5,0.1-9,0.5-13.4-0.3
		c-7.1-1.3-14.1-0.5-21.2-0.6c-2.2,0-4.3,0.1-6-1.7c0-6.3,0-12.6,0-18.9c0-2.5,0.8-3.5,3.1-1.8c0.1,0.1,0.3,0.2,0.4,0.3
		c8,4.8,8,4.8,13.7-3c5.7-8,5.7-8,10.8,1c2,3.8,2.3,7.9,2.3,12.1c0,7.2,0.5,7.6,7.6,7.9C43.6,149.1,46.2,148.8,48.1,151z"/>
	<path class="st6" d="M48.3,158.8c0,7.3,0,7.3-7.3,7.3c-10.1,0-20.3,0-30.4,0c-7.3,0-7.3,0-7.3-7.3c1-2.4,3.3-2.3,5.1-2.3
		c11.6,0,23.2,0,34.8,0C45,156.5,47.3,156.4,48.3,158.8z"/>
	<path class="st7" d="M48.1,151c-4.2,0-8.3-0.1-12.5,0.2c-3.6,0.2-4.6-1.4-4.5-4.7c0.2-5.8,0.1-11.6,0.2-17.5
		c2.7,1.7,3.2,6.5,6.3,6.4c2.5-0.1,5-2.9,7.5-4.6c2.4-1.7,3.2-0.8,3.2,1.8C48.2,138.7,48.2,144.8,48.1,151z"/>
	<path class="st8" d="M48.3,158.8c-15,0-30,0-45,0c-4.6-2.6-4.6-4.5,0-7.4c15.2,0.1,30.5,0.2,45.7,0.3C53,155,52.8,156.4,48.3,158.8
		z"/>
	<path class="st9" d="M25.8,144.9c-2.6-2.5-4.4-4.6-1.3-7.6c1.2-1.1,1.7-0.8,2.7,0.2C30.3,140.5,28.1,142.6,25.8,144.9z"/>
	<path class="st10" d="M39.9,154.2c0.4,0.5,0.9,0.8,0.8,1.1c0,0.3-0.6,0.8-0.9,0.8c-0.3,0-0.8-0.5-0.8-0.8
		C39,155,39.5,154.6,39.9,154.2z"/>
	<path class="st11" d="M48.1,155.3c-0.6,0.3-1,0.8-1.3,0.7c-0.3-0.1-0.6-0.6-0.9-0.9c0.3-0.3,0.7-0.7,1-0.7
		C47.3,154.5,47.6,154.9,48.1,155.3z"/>
	<path class="st10" d="M5,156.3c-0.5-0.4-0.8-0.6-1.2-0.9c0.2-0.3,0.5-0.9,0.8-0.9c0.3-0.1,0.9,0.3,1,0.6
		C5.7,155.4,5.2,155.8,5,156.3z"/>
	<path class="st10" d="M13.6,155.4c-0.9,0.4-1.3,0.7-1.7,0.7c-0.4,0-0.7-0.4-1.1-0.6c0.2-0.3,0.4-0.8,0.8-0.9
		C11.9,154.4,12.3,154.8,13.6,155.4z"/>
	<path class="st10" d="M18.5,156.8c-0.3-0.7-0.6-1.1-0.6-1.5c0-0.3,0.5-0.8,0.8-0.9c0.3,0,0.9,0.4,0.9,0.7
		C19.7,155.5,19.2,155.8,18.5,156.8z"/>
	<path class="st10" d="M27.9,155.1c-1.5,0.6-2,1-2.3,0.9c-0.3-0.1-0.5-0.6-0.7-0.9c0.4-0.2,0.7-0.5,1.1-0.6
		C26.4,154.5,26.9,154.7,27.9,155.1z"/>
	<path class="st10" d="M34,155.3c-0.5,0.4-0.9,0.8-1.2,0.8c-0.3,0-0.6-0.5-0.9-0.8c0.3-0.3,0.6-0.8,0.9-0.8
		C33.2,154.4,33.5,154.9,34,155.3z"/>
</g>
<g>
	<path class="st12" d="M46.6,86c-8,8-15.6,16.6-24.4,23.9c-3.1-0.4-5.6-1.5-6.3-5c-0.1-2.3,0.8-4.2,2.4-5.8c5.6-5.7,11.3-11.4,17-17
		c1.5-1.4,3.1-2.5,5.2-2.6C44.1,80.2,46.5,82,46.6,86z"/>
	<path class="st13" d="M7.1,94.8C14.4,86,22.9,78.4,31,70.4c3.3,0,4.9,1.8,5.2,4.9c0,0.8-0.3,1.7-0.8,2.3
		C28.9,85.1,21.8,92,14.5,98.7c-0.8,0.8-2,1.1-3.2,1.1C8.3,99.4,7.4,97.3,7.1,94.8z"/>
	<path class="st14" d="M35.7,75.5c-1.6-1.7-3.1-3.4-4.7-5.1c0-2.5,3.1-3.2,3.4-5.6c0.7,0,1.3,0,2,0c6,4.7,12.3,9.1,15.3,16.6
		c-1,2.3-2.5,4-5.1,4.6c-2-1.9-4.1-3.8-6.1-5.7C37.5,80.1,35.3,79.1,35.7,75.5z"/>
	<path class="st15" d="M7.1,94.8c1.4,1.3,2.8,2.6,4.2,3.9c3.6,0.3,5.1,2.6,5.7,5.8c1.7,1.8,3.4,3.6,5.1,5.4c-3.7,1.3-7.6,1.6-11.5,2
		c-3.3-0.4-5.2-2.3-5.6-5.6C5.5,102.4,5.8,98.5,7.1,94.8z"/>
	<path class="st16" d="M51.6,81.3c-4.8-5.8-11.3-10-15.3-16.6l0-0.3c0.7-0.5,1.3-0.5,2,0c0.6,0.1,1.3,0.2,1.9,0.3
		c3.3,3.3,6.5,6.6,9.8,9.9C52.1,76.6,53,78.7,51.6,81.3z"/>
	<path class="st17" d="M5.2,106.3c1.9,1.9,3.7,3.7,5.6,5.6c-2.3,0.8-5.1,2.5-6.7,0.8C2.9,111.5,4.2,108.3,5.2,106.3z"/>
	<path class="st18" d="M17.1,104.4c-1.9-1.9-3.8-3.9-5.7-5.8c6.5-6.3,13-12.7,19.5-19c1.5-1.5,2.8-3.2,4.9-4.1
		c1.6,1.6,3.2,3.2,4.8,4.8C32.7,88.3,24,95.5,17.1,104.4z"/>
</g>
<g>
	<path class="st19" d="M45.7,40.9c-1,7.2-1.4,7.5-8.8,7.6c-1.5,0-3,0.2-4.5,0c-4.9-0.6-8.8,0.7-11.7,4.8c-2.1,3-3.9,2.6-6.2,0
		c-2.2-2.6-4.5-5.2-8.6-5.1c-2.7,0.1-4-2.1-4-4.8c0-7.2-0.1-14.3,0-21.5c0.2-5.9,4.9-4.7,8.5-5.1c1.5-1.1,3.1-2,5-2
		c8.3-0.2,16.7-0.3,25,0.1c3,0.2,5.6,1.6,6,4.4C47.5,26.5,48.5,33.8,45.7,40.9z"/>
	<path class="st20" d="M45.7,40.9c-0.1-5.6-0.2-11.3-0.3-16.9c-0.1-6-1-7-6.9-7.1c-9.3-0.1-18.6-0.1-27.9-0.2
		c0.3-6.5,0.9-7.2,7.2-7.3c1.5,0,3-0.2,4.5,0c5.5,0.8,10.1-0.6,13.4-5.4c1.6-2.3,3.2-2.2,5.1-0.1c2.6,2.9,5.1,6,9.8,5.8
		c2.4-0.1,3.3,2.4,3.3,4.8c0,7,0.1,14,0,21C53.8,41.4,49.6,41,45.7,40.9z"/>
	<path class="st21" d="M30.6,35.5c-1.7-0.4-2.7-1.4-2.5-3.1c0.2-1.7,1.4-2.5,3.1-2.3c1.5,0.2,2.3,1.3,2.2,2.8
		C33.3,34.5,32.2,35.4,30.6,35.5z"/>
	<path class="st21" d="M24.5,32.8c-0.3,1.7-1.2,2.8-2.9,2.6c-1.7-0.1-2.7-1.2-2.5-3c0.2-1.5,1.1-2.4,2.6-2.4
		C23.5,30,24.3,31.1,24.5,32.8z"/>
	<path class="st21" d="M15.5,32.6c-0.3,1.8-1.2,3-3,2.8c-1.7-0.1-2.7-1.2-2.5-3c0.1-1.5,1.1-2.4,2.6-2.4
		C14.5,30,15.2,31.2,15.5,32.6z"/>
</g>
<g>
	<path class="st22" d="M55.6,262.3c0,5.8-0.2,11.6,0,17.4c0.1,4.6-1.6,6.7-6.4,6.7c-13.1-0.1-26.2-0.1-39.3,0
		c-4.8,0-6.5-2.1-6.4-6.7c0.2-5.8,0-11.6,0-17.4c0.1-2.3,0.2-4.6,0.2-6.8c3.9-2,5.1,2.7,8.1,3.1c4.3,3.7,9.6,5.7,14.1,9
		c2.5,1.8,4.9,1.8,7.3,0c4.5-3.3,9.8-5.3,14.1-9c2.9-0.4,4.2-5.1,8.1-3.1C55.4,257.7,55.5,260,55.6,262.3z"/>
	<path class="st23" d="M55.4,255.4c-2.3,1.6-4.6,3.2-6.9,4.8c-0.9-0.5-1.6-1.2-1.9-2.2c-0.9-3.1-3.1-3.8-6.1-3.8
		c-6.8,0.1-13.6,0.2-20.3,0c-3.8-0.1-6.9,0.4-8,4.7c-0.2,0.6-0.9,0.9-1.5,1.3c-2.3-1.6-4.6-3.2-6.9-4.8c-0.4-1.7,0.8-2.4,1.9-3.1
		c6.8-4.4,13.7-8.8,20.5-13.3c1.9-1.3,3.7-2,6-0.5c7.4,4.8,14.8,9.6,22.2,14.4C55.1,253.4,55.6,254.3,55.4,255.4z"/>
	<path class="st24" d="M10.6,260.2c-0.6-8.3-0.6-8.3,7.7-8.3c7.5,0,14.9,0,22.4,0c8.3,0,8.3,0,7.7,8.3c-5,3.3-10.1,6.4-15,9.8
		c-2.7,1.9-5,1.9-7.8,0C20.7,266.7,15.6,263.5,10.6,260.2z"/>
	<path class="st25" d="M19.1,270.8c-4.1,3.6-8.2,7.2-12.3,10.9c0.3,0.3,0.7,0.7,1,1c3.9-3.8,7.7-7.6,11.6-11.4
		C19.3,271.2,19.2,271,19.1,270.8z"/>
	<path class="st25" d="M40.4,270.5c3.9,3.7,7.8,7.5,11.6,11.2c0.2-0.2,0.4-0.3,0.5-0.5c-3.9-3.8-7.8-7.5-11.7-11.3
		C40.7,270.1,40.6,270.3,40.4,270.5z"/>
	<path class="st26" d="M16.5,257.4c1-2.1,3-1.1,4.4-1c7.2,0.5,14.6-1.5,21.7,1c-1,1-2.2,1.4-3.6,1.4c-6.3,0.1-12.5,0.1-18.8,0
		C18.7,258.8,17.5,258.4,16.5,257.4z"/>
	<path class="st27" d="M16.5,259.4c-0.1-0.3-0.2-0.5-0.2-0.8c0-0.1,0.1-0.2,0.2-0.3c8.7-0.7,17.3-0.7,26,0c0.1,0.3,0.2,0.5,0.2,0.8
		c0,0.1-0.1,0.2-0.2,0.4C33.8,261,25.2,261,16.5,259.4z"/>
	<path class="st28" d="M42.5,260.3c-0.8,1.9-2.6,1-3.9,1c-6.1,0.1-12.2,0.1-18.3,0c-1.3,0-3,0.9-3.9-1
		C25.2,259.6,33.8,259.6,42.5,260.3z"/>
	<path class="st29" d="M42.5,258.3c-8.7,0-17.3,0-26,0c0-0.3,0-0.6,0-0.9c8.7,0,17.3,0,26,0C42.5,257.7,42.5,258,42.5,258.3z"/>
	<path class="st30" d="M42.5,260.3c-8.7,0-17.4,0-26,0c0-0.3,0-0.6,0-0.9c8.7,0,17.4,0,26,0C42.5,259.7,42.5,260,42.5,260.3z"/>
</g>
</svg>
