<?xml version="1.0" encoding="utf-8"?>
<!-- Generator: Adobe Illustrator 19.2.0, SVG Export Plug-In . SVG Version: 6.00 Build 0)  -->
<svg version="1.1" id="Слой_1" xmlns="http://www.w3.org/2000/svg" xmlns:xlink="http://www.w3.org/1999/xlink" x="0px" y="0px"
	 viewBox="0 0 522 63.5" style="enable-background:new 0 0 522 63.5;" xml:space="preserve">
<style type="text/css">
	.st0{fill:none;}
	.st1{fill:none;stroke:#201600;stroke-miterlimit:10;}
	.st2{fill:#F8BC3B;}
	.st3{fill:#900058;}
	.st4{fill:#FFAE0F;}
	.st5{fill:#00A4C6;}
	.st6{fill:#016A81;}
	.st7{fill:#3258B6;}
	.st8{fill:#FFC833;}
	.st9{fill:#567FE5;}
	.st10{fill:#456FD8;}
	.st11{fill:#C6C6C6;}
	.st12{fill:#FF72B1;}
	.st13{fill:#E89E00;}
	.st14{fill:#FFFFFF;}
	.st15{fill:#C3C3C3;}
	.st16{fill:#44B2B6;}
	.st17{fill:#F1CDB0;}
	.st18{fill:#AB6125;}
	.st19{fill:#2DB466;}
	.st20{fill:#3DD97F;}
	.st21{fill:none;stroke:#89C7A3;stroke-miterlimit:10;}
	.st22{fill:none;stroke:#28A25B;stroke-linecap:round;stroke-miterlimit:10;}
</style>
<g>
	<g>
		<path class="st4" d="M52.1,48.2H21.6c-3.4,0-6.2-2.8-6.2-6.2V22.5c0-3.4,2.8-6.2,6.2-6.2h30.5c3.4,0,6.2,2.8,6.2,6.2V42
			C58.3,45.5,55.5,48.2,52.1,48.2z"/>
		<polygon class="st4" points="42.8,9.1 50,16.5 35.6,16.5 		"/>
	</g>
	<g>
		<g>
			<path class="st5" d="M41.1,56H10.6c-3.4,0-6.2-2.8-6.2-6.2V30.3c0-3.4,2.8-6.2,6.2-6.2h30.5c3.4,0,6.2,2.8,6.2,6.2v19.5
				C47.3,53.2,44.5,56,41.1,56z"/>
			<polygon class="st5" points="19.9,63.5 12.7,56 27,56 			"/>
		</g>
		<circle class="st6" cx="15.7" cy="40.8" r="3"/>
		<circle class="st6" cx="25.4" cy="40.8" r="3"/>
		<circle class="st6" cx="35.1" cy="40.8" r="3"/>
	</g>
</g>
<g>
	<polygon class="st7" points="122.5,54.5 128.1,60.1 120.6,61.7 	"/>
	<polyline class="st8" points="139.3,57.7 128.1,60.1 122.4,54.5 123.2,41.7 	"/>
	
		<rect x="131.5" y="39" transform="matrix(0.7071 -0.7071 0.7071 0.7071 13.1655 117.5851)" class="st7" width="34.1" height="7.9"/>
	
		<rect x="125.9" y="33.4" transform="matrix(0.7071 -0.7071 0.7071 0.7071 15.4348 112.0333)" class="st9" width="34.1" height="7.9"/>
	
		<rect x="120.7" y="28.6" transform="matrix(0.7071 -0.7071 0.7071 0.7071 17.6424 106.7979)" class="st10" width="34.1" height="7"/>
	
		<rect x="154.3" y="11.7" transform="matrix(0.7071 -0.7071 0.7071 0.7071 29.9584 118.4399)" class="st11" width="7.3" height="22.7"/>
	<polygon class="st12" points="169.7,23.7 168.6,28.5 152.5,12.4 157.9,11.9 	"/>
</g>
<g>
	<g>
		<g>
			<polygon class="st2" points="247.5,54.3 236.3,54.3 236.3,17.9 247.5,26.1 			"/>
			<polygon class="st2" points="258.6,54.3 247.4,54.3 247.5,26.1 258.6,10.3 			"/>
		</g>
		<g>
			<g>
				<g>
					<polygon class="st13" points="269.7,26.1 280.9,17.9 280.9,54.3 269.7,54.3 					"/>
				</g>
				<g>
					<polygon class="st13" points="258.6,10.3 269.7,26.1 269.8,54.3 258.6,54.3 					"/>
				</g>
			</g>
		</g>
	</g>
	<polygon class="st3" points="258.6,34.5 254.9,29.7 258.7,24.8 262.4,29.6 	"/>
	<path class="st14" d="M282,47.2h-46.7c-1.7,0-3.1-1.4-3.1-3.1l0,0c0-1.7,1.4-3.1,3.1-3.1H282c1.7,0,3.1,1.4,3.1,3.1l0,0
		C285.1,45.8,283.7,47.2,282,47.2z"/>
	<g>
		<circle class="st15" cx="237.4" cy="44" r="1.5"/>
		<circle class="st15" cx="244.3" cy="44" r="1.5"/>
		<circle class="st15" cx="251.3" cy="44" r="1.5"/>
		<circle class="st15" cx="258.2" cy="44" r="1.5"/>
		<circle class="st15" cx="265.1" cy="44" r="1.5"/>
		<circle class="st15" cx="272" cy="44" r="1.5"/>
		<circle class="st15" cx="279.8" cy="44" r="1.5"/>
	</g>
</g>
<g>
	<g>
		<path class="st16" d="M375.5,58.5l-24-0.3c-1.8-0.1-3.4-1.2-3.8-2.9c-0.1-0.3-0.1-0.5-0.1-0.8c0-13.6,12.3-24.9,27.2-24.9
			c14.9,0,27.5,11.2,27.2,24.9c0,2-0.2,2.6-0.5,2.9c-0.6,0.6-1.5,0.8-2.4,0.8L375.5,58.5C376.2,58.2,375.6,58.6,375.5,58.5z"/>
		<g>
			<polyline class="st14" points="371.3,43.8 364.9,32 378.9,32 			"/>
			<polyline class="st14" points="379.7,43.8 373.3,32 386.1,32 			"/>
		</g>
		<circle class="st17" cx="375.5" cy="21.4" r="15"/>
	</g>
	<path class="st18" d="M359.7,20.3c-1.2-1,0.4-5.7,3.3-8.9c4.1-4.7,10-5.2,10.9-5.3c5.7-0.4,11,2.2,14.1,6c2.6,3.2,4.7,8.3,3,10.1
		c-0.8,0.8-2.1,0.7-4.6,0.5c-3.1-0.2-5.8-0.9-7.8-1.7c-2.4-1-3.1-1.9-4.4-2.9c-2.6-2.3-2.6-4.4-4-4.5s-1.8,2.1-4.9,4.4
		C363.9,19.2,360.7,21.1,359.7,20.3z"/>
</g>
<g>
	<path class="st19" d="M511.8,58.1h-43.6c-2.2,0-3.9-1.8-3.9-3.9V28.6c0-2.2,1.8-3.9,3.9-3.9h43.6c2.2,0,3.9,1.8,3.9,3.9v25.6
		C515.8,56.3,514,58.1,511.8,58.1z"/>
	<polygon class="st20" points="515.5,27.9 490,46.7 464.5,27.4 464.5,26 490,10.9 515.5,26.2 	"/>
	<g>
		<line class="st21" x1="476.6" y1="28.5" x2="502.8" y2="28.5"/>
		<line class="st21" x1="476.6" y1="30.5" x2="502.8" y2="30.5"/>
		<line class="st21" x1="476.6" y1="32.6" x2="502.8" y2="32.6"/>
	</g>
	<line class="st22" x1="467.1" y1="54.5" x2="479.4" y2="42.1"/>
	<line class="st22" x1="512.4" y1="54.5" x2="500.1" y2="42.1"/>
</g>
</svg>
